<svg width="62" height="19" viewBox="0 0 62 19" fill="none" xmlns="http://www.w3.org/2000/svg">
<path d="M2.596 18C2.132 18 1.732 17.832 1.396 17.496C1.076 17.16 0.916 16.76 0.916 16.296V3.36C0.916 2.56 1.18 1.968 1.708 1.584C2.236 1.184 3.044 0.983999 4.132 0.983999V15.216H10.612C11.364 15.216 11.932 15.456 12.316 15.936C12.7 16.4 12.892 17.088 12.892 18H2.596ZM20.7522 18.216C19.4402 18.216 18.2402 17.96 17.1522 17.448C16.0642 16.92 15.2002 16.208 14.5602 15.312C13.9362 14.416 13.6242 13.44 13.6242 12.384V6.792C13.6242 5.736 13.9362 4.768 14.5602 3.888C15.2002 2.992 16.0642 2.288 17.1522 1.776C18.2402 1.248 19.4402 0.983999 20.7522 0.983999C22.0642 0.983999 23.2642 1.248 24.3522 1.776C25.4562 2.288 26.3202 2.992 26.9442 3.888C27.5842 4.768 27.9042 5.736 27.9042 6.792V12.384C27.9042 13.44 27.5842 14.416 26.9442 15.312C26.3202 16.208 25.4562 16.92 24.3522 17.448C23.2642 17.96 22.0642 18.216 20.7522 18.216ZM20.7522 15.408C21.9522 15.408 22.9122 15.128 23.6322 14.568C24.3522 13.992 24.7122 13.248 24.7122 12.336V6.864C24.7122 5.936 24.3522 5.192 23.6322 4.632C22.9122 4.056 21.9522 3.768 20.7522 3.768C19.5682 3.768 18.6162 4.056 17.8962 4.632C17.1762 5.192 16.8162 5.936 16.8162 6.864V12.336C16.8162 13.248 17.1762 13.992 17.8962 14.568C18.6162 15.128 19.5682 15.408 20.7522 15.408ZM37.8618 18.216C36.4378 18.216 35.1658 17.944 34.0458 17.4C32.9418 16.856 32.0778 16.096 31.4538 15.12C30.8298 14.144 30.5178 13.032 30.5178 11.784V7.368C30.5178 6.12 30.8218 5.016 31.4298 4.056C32.0538 3.08 32.9098 2.328 33.9978 1.8C35.0858 1.256 36.3338 0.983999 37.7418 0.983999C39.1498 0.983999 40.3978 1.2 41.4858 1.632C42.5898 2.048 43.4458 2.632 44.0538 3.384C44.6618 4.136 44.9658 5 44.9658 5.976C44.9658 6.568 44.7658 7.032 44.3658 7.368C43.9818 7.704 43.4618 7.872 42.8058 7.872C42.4858 7.872 42.1338 7.824 41.7498 7.728C41.7818 7.344 41.7978 6.968 41.7978 6.6C41.7978 5.752 41.4218 5.064 40.6698 4.536C39.9178 4.008 38.9418 3.744 37.7418 3.744C36.5578 3.744 35.5898 4.08 34.8378 4.752C34.1018 5.424 33.7338 6.296 33.7338 7.368V11.784C33.7338 12.856 34.1178 13.736 34.8858 14.424C35.6538 15.112 36.6458 15.456 37.8618 15.456C39.0458 15.456 40.0058 15.184 40.7418 14.64C41.4938 14.08 41.8698 13.36 41.8698 12.48V11.736H39.8058C39.1978 11.736 38.7018 11.504 38.3178 11.04C37.9338 10.56 37.7418 9.944 37.7418 9.192H43.5738C44.0218 9.192 44.3818 9.328 44.6538 9.6C44.9258 9.872 45.0618 10.232 45.0618 10.68V12.552C45.0618 13.656 44.7578 14.64 44.1498 15.504C43.5418 16.352 42.6858 17.016 41.5818 17.496C40.4938 17.976 39.2538 18.216 37.8618 18.216ZM54.7703 18.216C53.4583 18.216 52.2583 17.96 51.1703 17.448C50.0823 16.92 49.2183 16.208 48.5783 15.312C47.9543 14.416 47.6423 13.44 47.6423 12.384V6.792C47.6423 5.736 47.9543 4.768 48.5783 3.888C49.2183 2.992 50.0823 2.288 51.1703 1.776C52.2583 1.248 53.4583 0.983999 54.7703 0.983999C56.0823 0.983999 57.2823 1.248 58.3703 1.776C59.4743 2.288 60.3383 2.992 60.9623 3.888C61.6023 4.768 61.9223 5.736 61.9223 6.792V12.384C61.9223 13.44 61.6023 14.416 60.9623 15.312C60.3383 16.208 59.4743 16.92 58.3703 17.448C57.2823 17.96 56.0823 18.216 54.7703 18.216ZM54.7703 15.408C55.9703 15.408 56.9303 15.128 57.6503 14.568C58.3703 13.992 58.7303 13.248 58.7303 12.336V6.864C58.7303 5.936 58.3703 5.192 57.6503 4.632C56.9303 4.056 55.9703 3.768 54.7703 3.768C53.5863 3.768 52.6343 4.056 51.9143 4.632C51.1943 5.192 50.8343 5.936 50.8343 6.864V12.336C50.8343 13.248 51.1943 13.992 51.9143 14.568C52.6343 15.128 53.5863 15.408 54.7703 15.408Z" fill="url(#paint0_linear_587_975)"/>
<defs>
<linearGradient id="paint0_linear_587_975" x1="-0.5" y1="8" x2="63.5" y2="8" gradientUnits="userSpaceOnUse">
<stop stop-color="#FA6E00"/>
<stop offset="1" stop-color="#E60026"/>
</linearGradient>
</defs>
</svg>
